<?xml version="1.0" standalone="no"?>
<!DOCTYPE svg PUBLIC "-//W3C//DTD SVG 20010904//EN"
 "http://www.w3.org/TR/2001/REC-SVG-20010904/DTD/svg10.dtd">
<svg version="1.0" xmlns="http://www.w3.org/2000/svg"
 width="48.000000pt" height="48.000000pt" viewBox="0 0 48.000000 48.000000"
 preserveAspectRatio="xMidYMid meet">
<metadata>
Created by potrace 1.15, written by Peter Selinger 2001-2017
</metadata>
<g transform="translate(0.000000,48.000000) scale(0.100000,-0.100000)"
fill="#000000" stroke="none">
<path d="M11 386 c-9 -11 -12 -50 -9 -135 3 -109 5 -123 25 -143 28 -28 84
-29 113 -3 16 14 20 30 20 76 0 32 -4 61 -10 64 -15 9 -60 -25 -60 -46 0 -11
5 -19 10 -19 16 0 12 -37 -5 -44 -28 -11 -45 22 -45 90 0 50 3 64 15 64 19 0
20 36 1 43 -8 3 -16 18 -18 33 -4 32 -20 41 -37 20z"/>
<path d="M235 241 c-16 -10 -39 -28 -50 -40 -18 -20 -18 -25 -5 -49 9 -15 35
-37 60 -50 50 -25 84 -23 134 8 23 14 34 16 52 8 40 -19 54 -4 54 57 0 54 0
55 -29 55 -17 0 -32 -4 -36 -10 -3 -5 -22 2 -42 15 -43 30 -96 32 -138 6z"/>
</g>
</svg>
